<?xml version="1.0" ?><svg height="24px" version="1.1" viewBox="0 0 24 24" width="24px" xmlns="http://www.w3.org/2000/svg" xmlns:sketch="http://www.bohemiancoding.com/sketch/ns" xmlns:xlink="http://www.w3.org/1999/xlink"><title/><desc/><defs/><g fill="none" fill-rule="evenodd" id="miu" stroke="none" stroke-width="1"><g id="Artboard-1" transform="translate(-431.000000, -479.000000)"><g id="slice" transform="translate(215.000000, 119.000000)"/><path d="M432,480 L432,486 L438,486 L438,480 L432,480 Z M440,480 L440,486 L446,486 L446,480 L440,480 Z M448,480 L448,486 L454,486 L454,480 L448,480 Z M449,481 L449,485 L453,485 L453,481 L449,481 Z M441,481 L441,485 L445,485 L445,481 L441,481 Z M433,481 L433,485 L437,485 L437,481 L433,481 Z M432,488 L432,494 L438,494 L438,488 L432,488 Z M440,488 L440,494 L446,494 L446,488 L440,488 Z M448,488 L448,494 L454,494 L454,488 L448,488 Z M449,489 L449,493 L453,493 L453,489 L449,489 Z M441,489 L441,493 L445,493 L445,489 L441,489 Z M433,489 L433,493 L437,493 L437,489 L433,489 Z M432,496 L432,502 L438,502 L438,496 L432,496 Z M440,496 L440,502 L446,502 L446,496 L440,496 Z M448,496 L448,502 L454,502 L454,496 L448,496 Z M449,497 L449,501 L453,501 L453,497 L449,497 Z M441,497 L441,501 L445,501 L445,497 L441,497 Z M433,497 L433,501 L437,501 L437,497 L433,497 Z" fill="#FFFFFF" id="editor-grid-view-block-outline-stroke"/></g></g></svg>