<svg xmlns="http://www.w3.org/2000/svg"><symbol viewBox="0 0 32.6 32.9" id="icon-git-black"><title>git-black</title> <style type="text/css"> .st0{fill-rule:evenodd;clip-rule:evenodd;fill:#191717;} </style> <path class="st0" d="M16.3,0C7.3,0,0,7.3,0,16.3c0,7.2,4.7,13.3,11.1,15.5c0.8,0.1,1.1-0.4,1.1-0.8c0-0.4,0-1.4,0-2.8
	c-4.5,1-5.5-2.2-5.5-2.2c-0.7-1.9-1.8-2.4-1.8-2.4c-1.5-1,0.1-1,0.1-1c1.6,0.1,2.5,1.7,2.5,1.7c1.5,2.5,3.8,1.8,4.7,1.4
	c0.1-1.1,0.6-1.8,1-2.2c-3.6-0.4-7.4-1.8-7.4-8.1c0-1.8,0.6-3.2,1.7-4.4C7.4,10.7,6.8,9,7.7,6.8c0,0,1.4-0.4,4.5,1.7
	c1.3-0.4,2.7-0.5,4.1-0.5c1.4,0,2.8,0.2,4.1,0.5c3.1-2.1,4.5-1.7,4.5-1.7c0.9,2.2,0.3,3.9,0.2,4.3c1,1.1,1.7,2.6,1.7,4.4
	c0,6.3-3.8,7.6-7.4,8c0.6,0.5,1.1,1.5,1.1,3c0,2.2,0,3.9,0,4.5c0,0.4,0.3,0.9,1.1,0.8c6.5-2.2,11.1-8.3,11.1-15.5
	C32.6,7.3,25.3,0,16.3,0z"/> </symbol><symbol viewBox="0 0 33 33" id="icon-git-white"><title>git-white</title> <style type="text/css"> .st0{fill:#FFFFFF;} </style> <path class="st0" d="M16.5,0C7.5,0,0.2,7.3,0.2,16.3c0,7.2,4.7,13.3,11.1,15.5c0.8,0.1,1.1-0.4,1.1-0.8s0-1.4,0-2.8
	c-4.5,1-5.5-2.2-5.5-2.2c-0.7-1.9-1.8-2.4-1.8-2.4c-1.5-1,0.1-1,0.1-1c1.6,0.1,2.5,1.7,2.5,1.7c1.5,2.5,3.8,1.8,4.7,1.4
	c0.1-1.1,0.6-1.8,1-2.2C9.8,23.1,6,21.7,6,15.4c0-1.8,0.6-3.2,1.7-4.4C7.6,10.7,7,9,7.9,6.8c0,0,1.4-0.4,4.5,1.7
	C13.7,8.1,15.1,8,16.5,8s2.8,0.2,4.1,0.5c3.1-2.1,4.5-1.7,4.5-1.7c0.9,2.2,0.3,3.9,0.2,4.3c1,1.1,1.7,2.6,1.7,4.4
	c0,6.3-3.8,7.6-7.4,8c0.6,0.5,1.1,1.5,1.1,3c0,2.2,0,3.9,0,4.5c0,0.4,0.3,0.9,1.1,0.8c6.5-2.2,11.1-8.3,11.1-15.5
	C32.8,7.3,25.5,0,16.5,0z"/> </symbol><symbol viewBox="0 0 24 24" id="icon-kapi-flex-grid-view"><title>kapi-flex-grid-view</title><g fill="none" fill-rule="evenodd" id="kapi-flex-grid-view-miu" stroke="none" stroke-width="1"><g id="kapi-flex-grid-view-Artboard-1" transform="translate(-431.000000, -479.000000)"><path d="M432,480 L432,486 L438,486 L438,480 L432,480 Z M440,480 L440,486 L446,486 L446,480 L440,480 Z M448,480 L448,486 L454,486 L454,480 L448,480 Z M449,481 L449,485 L453,485 L453,481 L449,481 Z M441,481 L441,485 L445,485 L445,481 L441,481 Z M433,481 L433,485 L437,485 L437,481 L433,481 Z M432,488 L432,494 L438,494 L438,488 L432,488 Z M440,488 L440,494 L446,494 L446,488 L440,488 Z M448,488 L448,494 L454,494 L454,488 L448,488 Z M449,489 L449,493 L453,493 L453,489 L449,489 Z M441,489 L441,493 L445,493 L445,489 L441,489 Z M433,489 L433,493 L437,493 L437,489 L433,489 Z M432,496 L432,502 L438,502 L438,496 L432,496 Z M440,496 L440,502 L446,502 L446,496 L440,496 Z M448,496 L448,502 L454,502 L454,496 L448,496 Z M449,497 L449,501 L453,501 L453,497 L449,497 Z M441,497 L441,501 L445,501 L445,497 L441,497 Z M433,497 L433,501 L437,501 L437,497 L433,497 Z" fill="#FFFFFF" id="kapi-flex-grid-view-editor-grid-view-block-outline-stroke"/></g></g></symbol></svg>